<svg width="42" height="42" viewBox="0 0 42 42" fill="none" xmlns="http://www.w3.org/2000/svg">
<path d="M0 21C0 9.40202 9.40202 0 21 0C32.598 0 42 9.40202 42 21C42 32.598 32.598 42 21 42C9.40202 42 0 32.598 0 21Z" fill="#010101"/>
<path d="M21 20.58H33.6V22.68H21V20.58Z" fill="white"/>
<path d="M8.40002 20.58H21V22.68H8.40002V20.58Z" fill="url(#paint0_linear_2_49)"/>
<path d="M8.40002 18.48H33.6L33.6 20.58H8.40002V18.48Z" fill="#FFAA00"/>
<path d="M30.66 14.28H33.6V27.3H30.66V14.28Z" fill="#FFAA00"/>
<path d="M32.13 20.56H33.6L33.6 27.3L32.13 27.3V20.56Z" fill="white"/>
<path d="M8.40002 14.28H11.34V27.3H8.40002V14.28Z" fill="#FFAA00"/>
<path d="M9.87 20.56H11.34L11.34 27.3H9.87V20.56Z" fill="white"/>
<defs>
<linearGradient id="paint0_linear_2_49" x1="10.3333" y1="18.4003" x2="42.0058" y2="18.4725" gradientUnits="userSpaceOnUse">
<stop offset="0.126982" stop-color="#FFB41F"/>
<stop offset="1" stop-color="#FFAA00"/>
</linearGradient>
</defs>
</svg>
